HIERARCHY
ROOT mixamorig:Hips
{
	OFFSET 0.00 0.00 0.00
	CHANNELS 6 Xposition Yposition Zposition Zrotation Yrotation Xrotation
	JOINT mixamorig:Spine
	{
		OFFSET	0.0000	9.9235	-1.2273
		CHANNELS 3 Zrotation Yrotation Xrotation
		JOINT mixamorig:Spine1
		{
			OFFSET	-0.0001	11.6455	-1.4224
			CHANNELS 3 Zrotation Yrotation Xrotation
			JOINT mixamorig:Spine2
			{
				OFFSET	0.0001	13.3602	-1.6265
				CHANNELS 3 Zrotation Yrotation Xrotation
				JOINT mixamorig:Neck
				{
					OFFSET	0.0000	15.0325	0.7929
					CHANNELS 3 Zrotation Yrotation Xrotation
					JOINT mixamorig:Head
					{
						OFFSET	-0.0000	10.3218	3.1424
						CHANNELS 3 Zrotation Yrotation Xrotation
						JOINT mixamorig:HeadTop_End
						{
							OFFSET	0.0002	18.4747	6.6364
							CHANNELS 3 Zrotation Yrotation Xrotation
							End Site
							{
								OFFSET 0.0000 0.0000 0.0000
							}
						}
						JOINT mixamorig:LeftEye
						{
							OFFSET	2.9479	7.6817	9.1207
							CHANNELS 3 Zrotation Yrotation Xrotation
							End Site
							{
								OFFSET 0.0000 0.0000 0.0000
							}
						}
						JOINT mixamorig:RightEye
						{
							OFFSET	-2.9445	7.6817	9.1205
							CHANNELS 3 Zrotation Yrotation Xrotation
							End Site
							{
								OFFSET 0.0000 0.0000 0.0000
							}
						}
					}
				}
				JOINT mixamorig:LeftShoulder
				{
					OFFSET	6.1059	9.1104	0.7056
					CHANNELS 3 Zrotation Yrotation Xrotation
					JOINT mixamorig:LeftArm
					{
						OFFSET	12.6532	-0.3431	-2.6009
						CHANNELS 3 Zrotation Yrotation Xrotation
						JOINT mixamorig:LeftForeArm
						{
							OFFSET	27.3517	-0.9645	-1.4034
							CHANNELS 3 Zrotation Yrotation Xrotation
							JOINT mixamorig:LeftHand
							{
								OFFSET	27.5619	-0.7072	1.5500
								CHANNELS 3 Zrotation Yrotation Xrotation
								JOINT mixamorig:LeftHandMiddle1
								{
									OFFSET	12.6630	-1.3962	0.9548
									CHANNELS 3 Zrotation Yrotation Xrotation
									JOINT mixamorig:LeftHandMiddle2
									{
										OFFSET	3.6093	-0.1669	0.0778
										CHANNELS 3 Zrotation Yrotation Xrotation
										JOINT mixamorig:LeftHandMiddle3
										{
											OFFSET	3.4004	-0.6274	0.1148
											CHANNELS 3 Zrotation Yrotation Xrotation
											End Site
											{
												OFFSET 3.6205 -0.6493 0.1199
											}
										}
									}
								}
								JOINT mixamorig:LeftHandThumb1
								{
									OFFSET	3.3268	-2.0474	3.5790
									CHANNELS 3 Zrotation Yrotation Xrotation
									JOINT mixamorig:LeftHandThumb2
									{
										OFFSET	3.4890	-1.4806	2.8548
										CHANNELS 3 Zrotation Yrotation Xrotation
										JOINT mixamorig:LeftHandThumb3
										{
											OFFSET	3.4086	-1.7658	2.1133
											CHANNELS 3 Zrotation Yrotation Xrotation
											End Site
											{
												OFFSET 2.7231 -1.1597 1.7903
											}
										}
									}
								}
								JOINT mixamorig:LeftHandIndex1
								{
									OFFSET	11.9722	-1.1061	3.7324
									CHANNELS 3 Zrotation Yrotation Xrotation
									JOINT mixamorig:LeftHandIndex2
									{
										OFFSET	3.8387	-0.6406	-0.0310
										CHANNELS 3 Zrotation Yrotation Xrotation
										JOINT mixamorig:LeftHandIndex3
										{
											OFFSET	3.3346	-0.7374	-0.0133
											CHANNELS 3 Zrotation Yrotation Xrotation
											End Site
											{
												OFFSET 2.9714 -0.8030 0.0009
											}
										}
									}
								}
								JOINT mixamorig:LeftHandRing1
								{
									OFFSET	12.1659	-1.6805	-1.2769
									CHANNELS 3 Zrotation Yrotation Xrotation
									JOINT mixamorig:LeftHandRing2
									{
										OFFSET	3.5925	-0.2366	-0.0771
										CHANNELS 3 Zrotation Yrotation Xrotation
										JOINT mixamorig:LeftHandRing3
										{
											OFFSET	3.2906	-0.3266	-0.0615
											CHANNELS 3 Zrotation Yrotation Xrotation
											End Site
											{
												OFFSET 3.5423 -0.9211 -0.0200
											}
										}
									}
								}
								JOINT mixamorig:LeftHandPinky1
								{
									OFFSET	11.0508	-2.1872	-3.8040
									CHANNELS 3 Zrotation Yrotation Xrotation
									JOINT mixamorig:LeftHandPinky2
									{
										OFFSET	4.1236	-0.3047	0.1212
										CHANNELS 3 Zrotation Yrotation Xrotation
										JOINT mixamorig:LeftHandPinky3
										{
											OFFSET	2.5805	-0.2597	0.0823
											CHANNELS 3 Zrotation Yrotation Xrotation
											End Site
											{
												OFFSET 2.9027 -0.3379 0.0963
											}
										}
									}
								}
							}
						}
					}
				}
				JOINT mixamorig:RightShoulder
				{
					OFFSET	-6.1057	9.1105	0.7056
					CHANNELS 3 Zrotation Yrotation Xrotation
					JOINT mixamorig:RightArm
					{
						OFFSET	-12.6532	-0.3429	-2.6009
						CHANNELS 3 Zrotation Yrotation Xrotation
						JOINT mixamorig:RightForeArm
						{
							OFFSET	-27.3518	-0.9642	-1.4034
							CHANNELS 3 Zrotation Yrotation Xrotation
							JOINT mixamorig:RightHand
							{
								OFFSET	-27.5619	-0.7068	1.5501
								CHANNELS 3 Zrotation Yrotation Xrotation
								JOINT mixamorig:RightHandMiddle1
								{
									OFFSET	-12.6630	-1.3960	0.9549
									CHANNELS 3 Zrotation Yrotation Xrotation
									JOINT mixamorig:RightHandMiddle2
									{
										OFFSET	-3.6093	-0.1669	0.0778
										CHANNELS 3 Zrotation Yrotation Xrotation
										JOINT mixamorig:RightHandMiddle3
										{
											OFFSET	-3.4004	-0.6273	0.1148
											CHANNELS 3 Zrotation Yrotation Xrotation
											End Site
											{
												OFFSET -3.6205 -0.6492 0.1199
											}
										}
									}
								}
								JOINT mixamorig:RightHandThumb1
								{
									OFFSET	-3.3269	-2.0474	3.5790
									CHANNELS 3 Zrotation Yrotation Xrotation
									JOINT mixamorig:RightHandThumb2
									{
										OFFSET	-3.4890	-1.4805	2.8548
										CHANNELS 3 Zrotation Yrotation Xrotation
										JOINT mixamorig:RightHandThumb3
										{
											OFFSET	-3.4086	-1.7658	2.1133
											CHANNELS 3 Zrotation Yrotation Xrotation
											End Site
											{
												OFFSET -2.7231 -1.1596 1.7903
											}
										}
									}
								}
								JOINT mixamorig:RightHandIndex1
								{
									OFFSET	-11.9722	-1.1059	3.7324
									CHANNELS 3 Zrotation Yrotation Xrotation
									JOINT mixamorig:RightHandIndex2
									{
										OFFSET	-3.8387	-0.6406	-0.0310
										CHANNELS 3 Zrotation Yrotation Xrotation
										JOINT mixamorig:RightHandIndex3
										{
											OFFSET	-3.3346	-0.7373	-0.0133
											CHANNELS 3 Zrotation Yrotation Xrotation
											End Site
											{
												OFFSET -2.9715 -0.8029 0.0009
											}
										}
									}
								}
								JOINT mixamorig:RightHandRing1
								{
									OFFSET	-12.1659	-1.6803	-1.2769
									CHANNELS 3 Zrotation Yrotation Xrotation
									JOINT mixamorig:RightHandRing2
									{
										OFFSET	-3.5925	-0.2366	-0.0771
										CHANNELS 3 Zrotation Yrotation Xrotation
										JOINT mixamorig:RightHandRing3
										{
											OFFSET	-3.2906	-0.3265	-0.0615
											CHANNELS 3 Zrotation Yrotation Xrotation
											End Site
											{
												OFFSET -3.5423 -0.9210 -0.0200
											}
										}
									}
								}
								JOINT mixamorig:RightHandPinky1
								{
									OFFSET	-11.0508	-2.1870	-3.8040
									CHANNELS 3 Zrotation Yrotation Xrotation
									JOINT mixamorig:RightHandPinky2
									{
										OFFSET	-4.1236	-0.3046	0.1212
										CHANNELS 3 Zrotation Yrotation Xrotation
										JOINT mixamorig:RightHandPinky3
										{
											OFFSET	-2.5805	-0.2597	0.0823
											CHANNELS 3 Zrotation Yrotation Xrotation
											End Site
											{
												OFFSET -2.9027 -0.3379 0.0963
											}
										}
									}
								}
							}
						}
					}
				}
			}
		}
	}
	JOINT mixamorig:RightUpLeg
	{
		OFFSET	-9.1245	-6.6564	-0.0554
		CHANNELS 3 Zrotation Yrotation Xrotation
		JOINT mixamorig:RightLeg
		{
			OFFSET	0.0000	-40.5610	-1.7662
			CHANNELS 3 Zrotation Yrotation Xrotation
			JOINT mixamorig:RightFoot
			{
				OFFSET	0.4978	-41.9625	-3.3512
				CHANNELS 3 Zrotation Yrotation Xrotation
				JOINT mixamorig:RightToeBase
				{
					OFFSET	-0.3734	-10.4922	12.6406
					CHANNELS 3 Zrotation Yrotation Xrotation
					End Site
					{
						OFFSET 0.0000 0.0000 9.9925
					}
				}
			}
		}
	}
	JOINT mixamorig:LeftUpLeg
	{
		OFFSET	9.1245	-6.6564	-0.0554
		CHANNELS 3 Zrotation Yrotation Xrotation
		JOINT mixamorig:LeftLeg
		{
			OFFSET	-0.0000	-40.5610	-1.7662
			CHANNELS 3 Zrotation Yrotation Xrotation
			JOINT mixamorig:LeftFoot
			{
				OFFSET	-0.4978	-41.9625	-3.3512
				CHANNELS 3 Zrotation Yrotation Xrotation
				JOINT mixamorig:LeftToeBase
				{
					OFFSET	0.3734	-10.4922	12.6406
					CHANNELS 3 Zrotation Yrotation Xrotation
					End Site
					{
						OFFSET -0.0000 0.0000 9.9925
					}
				}
			}
		}
	}
}
MOTION
Frames: 7
Frame Time: 0.0333333
4.0543 98.4309 3.4435 2.3919 -6.0154 -2.8364 -1.1546 4.2372 3.5230 0.0379 -0.4701 1.0076 -0.3242 -1.2030 1.4672 1.2399 3.0653 1.6044 -6.1346 32.4008 -0.1694 0.0000 -0.0000 0.0000 0.0000 -0.0000 0.0000 0.0000 -0.0000 0.0000 -22.8792 -10.6385 4.0981 -43.3175 -4.4522 18.8835 0.8048 -58.4718 -2.4030 -2.7234 -3.9468 -137.2453 -68.9947 -4.0398 3.6157 -48.8485 -1.9542 1.9948 -46.0158 -2.0734 1.9762 4.1790 -35.3514 25.2567 1.7670 -6.6536 -4.6392 9.6678 4.5657 -3.9034 -54.8364 -8.3371 1.7038 -68.1573 -3.2456 0.9709 -19.4387 -0.9360 -0.1018 -71.2141 -4.0374 3.6427 -55.9144 -3.1744 0.1934 -18.0169 -0.8069 -0.2322 -80.1986 -3.7169 4.2538 -49.1646 -2.0057 2.2576 -11.8018 -0.6422 0.3778 7.5261 12.5637 3.3828 44.4224 21.2805 39.6419 -5.6600 78.8820 -7.5290 23.0653 -1.1045 -23.5734 50.2467 4.7268 2.8128 93.5966 3.4188 5.8877 34.9155 2.4427 1.4451 13.2982 28.3336 65.6723 -6.5151 -23.8291 10.1589 -14.9759 -41.5535 14.2037 16.5672 8.8383 -0.6016 38.0133 2.7664 0.1669 64.5458 4.3208 1.3283 55.8699 1.9533 3.3301 98.5312 5.9978 3.4733 23.1453 1.7757 -0.2324 59.6531 -0.6999 3.9132 60.9889 3.2816 3.5296 56.6987 3.2045 3.2024 -8.0365 -15.8050 0.0631 -6.3055 -7.8934 15.6686 8.4367 -5.9668 -9.7202 -0.0000 0.0000 -1.2610 -0.9307 9.1956 -13.2656 3.1095 5.6726 14.1576 -2.3609 1.5162 0.7137 0.0000 -0.0000 2.6723 
4.0290 98.4128 3.4580 2.4454 -5.5965 -2.8792 -1.1476 4.3574 3.5214 0.0291 -0.4701 1.0156 -0.3297 -1.2045 1.4655 1.2513 3.0993 1.6246 -6.2344 33.8182 -0.1637 0.0000 -0.0000 0.0000 0.0000 -0.0000 0.0000 0.0000 -0.0000 0.0000 -22.8437 -10.6367 4.0889 -43.3254 -4.2209 18.7170 0.8371 -58.8677 -2.4408 -2.7619 -3.6281 -137.0387 -68.9947 -4.0398 3.6157 -48.8485 -1.9542 1.9948 -46.0158 -2.0734 1.9761 4.1790 -35.3514 25.2567 1.7670 -6.6536 -4.6392 9.6678 4.5657 -3.9034 -54.8364 -8.3371 1.7038 -68.1573 -3.2456 0.9709 -19.4387 -0.9360 -0.1018 -71.2141 -4.0374 3.6427 -55.9144 -3.1744 0.1934 -18.0169 -0.8069 -0.2322 -80.1986 -3.7170 4.2538 -49.1647 -2.0057 2.2577 -11.8018 -0.6422 0.3777 7.5261 12.5637 3.3828 44.4211 21.2898 39.6453 -5.6601 78.8822 -7.5291 23.0947 -0.9231 -23.6167 50.2467 4.7268 2.8128 93.5966 3.4188 5.8877 34.9155 2.4427 1.4451 13.2982 28.3336 65.6723 -6.5151 -23.8291 10.1589 -14.9759 -41.5535 14.2037 16.5672 8.8383 -0.6016 38.0133 2.7664 0.1669 64.5458 4.3208 1.3283 55.8699 1.9533 3.3301 98.5312 5.9978 3.4733 23.1453 1.7757 -0.2324 59.6531 -0.6999 3.9132 60.9889 3.2816 3.5296 56.6987 3.2046 3.2024 -8.0523 -15.8433 0.1550 -6.3613 -7.8980 15.7724 8.5434 -6.3145 -9.8577 0.0000 -0.0000 -1.2837 -0.9953 9.1738 -13.2890 2.9577 5.2911 14.2132 -2.2994 1.5079 0.6754 0.0000 -0.0000 2.7006 
4.0043 98.3920 3.4667 2.5027 -5.1383 -2.9303 -1.1422 4.4638 3.5193 0.0200 -0.4700 1.0239 -0.3350 -1.2050 1.4639 1.2597 3.1255 1.6429 -6.3214 35.1169 -0.1377 0.0000 -0.0000 0.0000 0.0000 -0.0000 0.0000 0.0000 -0.0000 0.0000 -22.8175 -10.5681 4.0656 -43.3271 -4.0506 18.6097 0.8677 -59.2335 -2.4765 -2.8039 -3.3143 -136.8446 -68.9947 -4.0398 3.6157 -48.8484 -1.9541 1.9948 -46.0158 -2.0734 1.9762 4.1790 -35.3514 25.2567 1.7670 -6.6536 -4.6392 9.6678 4.5657 -3.9034 -54.8364 -8.3371 1.7038 -68.1574 -3.2456 0.9709 -19.4387 -0.9360 -0.1018 -71.2141 -4.0374 3.6427 -55.9144 -3.1744 0.1934 -18.0169 -0.8069 -0.2322 -80.1986 -3.7170 4.2538 -49.1646 -2.0057 2.2577 -11.8018 -0.6422 0.3778 7.5261 12.5637 3.3828 44.4197 21.2989 39.6485 -5.6604 78.8826 -7.5295 23.1289 -0.7458 -23.6582 50.2467 4.7268 2.8128 93.5966 3.4188 5.8877 34.9155 2.4427 1.4451 13.2982 28.3336 65.6723 -6.5151 -23.8291 10.1589 -14.9760 -41.5534 14.2037 16.5672 8.8383 -0.6016 38.0133 2.7664 0.1669 64.5457 4.3208 1.3282 55.8699 1.9533 3.3301 98.5312 5.9978 3.4733 23.1453 1.7757 -0.2324 59.6531 -0.6999 3.9132 60.9889 3.2816 3.5296 56.6987 3.2046 3.2024 -8.0716 -15.8984 0.2388 -6.4100 -7.8690 15.9293 8.6158 -6.6893 -10.0327 0.0000 0.0000 -1.3146 -1.0865 9.0540 -13.3132 2.8848 5.0192 14.2744 -2.2630 1.4996 0.6583 0.0000 -0.0000 2.7095 
3.9803 98.3691 3.4706 2.5614 -4.6480 -2.9884 -1.1369 4.5570 3.5170 0.0107 -0.4698 1.0324 -0.3389 -1.2048 1.4623 1.2651 3.1496 1.6601 -6.3890 36.2751 -0.0891 0.0000 -0.0000 0.0000 0.0000 -0.0000 0.0000 0.0000 -0.0000 0.0000 -22.7876 -10.4914 4.0396 -43.3019 -3.8975 18.5681 0.8991 -59.5989 -2.5129 -2.8049 -2.9997 -136.7124 -68.9947 -4.0398 3.6157 -48.8484 -1.9541 1.9948 -46.0158 -2.0734 1.9762 4.1789 -35.3514 25.2567 1.7671 -6.6536 -4.6392 9.6678 4.5657 -3.9034 -54.8364 -8.3371 1.7038 -68.1573 -3.2456 0.9709 -19.4387 -0.9360 -0.1018 -71.2141 -4.0374 3.6427 -55.9144 -3.1744 0.1934 -18.0169 -0.8069 -0.2322 -80.1986 -3.7169 4.2538 -49.1646 -2.0057 2.2576 -11.8018 -0.6422 0.3777 7.5261 12.5637 3.3828 44.4182 21.3078 39.6515 -5.6610 78.8836 -7.5301 23.1668 -0.5674 -23.6992 50.2467 4.7268 2.8128 93.5966 3.4188 5.8877 34.9155 2.4427 1.4451 13.2982 28.3336 65.6723 -6.5151 -23.8291 10.1589 -14.9759 -41.5534 14.2037 16.5672 8.8383 -0.6016 38.0133 2.7664 0.1669 64.5457 4.3208 1.3283 55.8699 1.9532 3.3301 98.5312 5.9978 3.4733 23.1453 1.7757 -0.2324 59.6531 -0.6999 3.9132 60.9889 3.2816 3.5296 56.6987 3.2046 3.2024 -8.0739 -15.9193 0.3329 -6.4915 -7.8676 16.0808 8.7281 -7.0915 -10.2058 -0.0000 0.0000 -1.3251 -1.1722 8.9864 -13.3380 2.7501 4.6364 14.3308 -2.2016 1.4917 0.6523 0.0000 -0.0000 2.7224 
3.9571 98.3439 3.4697 2.6213 -4.1332 -3.0521 -1.1317 4.6371 3.5146 0.0011 -0.4695 1.0411 -0.3419 -1.2042 1.4608 1.2690 3.1787 1.6777 -6.4312 37.2703 -0.0156 0.0000 -0.0000 0.0000 0.0000 -0.0000 0.0000 0.0000 -0.0000 0.0000 -22.7208 -10.4582 4.0213 -43.3170 -3.7124 18.5048 0.9314 -59.9650 -2.5502 -2.7864 -2.6934 -136.5848 -68.9948 -4.0398 3.6157 -48.8485 -1.9541 1.9948 -46.0158 -2.0734 1.9762 4.1789 -35.3514 25.2567 1.7671 -6.6536 -4.6392 9.6678 4.5657 -3.9034 -54.8364 -8.3371 1.7038 -68.1573 -3.2456 0.9709 -19.4387 -0.9360 -0.1018 -71.2141 -4.0374 3.6427 -55.9144 -3.1744 0.1934 -18.0169 -0.8069 -0.2322 -80.1986 -3.7169 4.2538 -49.1646 -2.0057 2.2577 -11.8018 -0.6422 0.3777 7.5261 12.5637 3.3828 44.4167 21.3165 39.6545 -5.6626 78.8859 -7.5317 23.2084 -0.3893 -23.7394 50.2467 4.7268 2.8128 93.5966 3.4188 5.8877 34.9155 2.4427 1.4451 13.2982 28.3336 65.6723 -6.5152 -23.8291 10.1589 -14.9760 -41.5535 14.2037 16.5672 8.8383 -0.6016 38.0133 2.7664 0.1669 64.5457 4.3208 1.3283 55.8699 1.9533 3.3301 98.5312 5.9978 3.4733 23.1453 1.7757 -0.2324 59.6531 -0.6999 3.9132 60.9889 3.2816 3.5296 56.6987 3.2046 3.2023 -8.0741 -15.9110 0.4269 -6.5752 -7.8813 16.2475 8.8603 -7.5539 -10.3873 0.0000 0.0000 -1.3492 -1.2465 8.9030 -13.3740 2.5876 4.2218 14.4179 -2.1344 1.4837 0.6170 0.0000 -0.0000 2.7651 
3.9344 98.3169 3.4646 2.6821 -3.6014 -3.1203 -1.1272 4.7047 3.5104 -0.0087 -0.4685 1.0501 -0.3441 -1.2031 1.4592 1.2721 3.2119 1.6959 -6.4549 38.1288 0.0780 0.0000 -0.0000 0.0000 0.0000 -0.0000 0.0000 0.0000 -0.0000 0.0000 -22.6767 -10.4211 4.0048 -43.3291 -3.5126 18.4030 0.9656 -60.3435 -2.5896 -2.7948 -2.3787 -136.4192 -68.9947 -4.0398 3.6157 -48.8485 -1.9541 1.9948 -46.0158 -2.0734 1.9762 4.1790 -35.3514 25.2567 1.7670 -6.6536 -4.6392 9.6678 4.5657 -3.9034 -54.8364 -8.3371 1.7038 -68.1573 -3.2456 0.9709 -19.4387 -0.9360 -0.1018 -71.2141 -4.0374 3.6427 -55.9144 -3.1744 0.1935 -18.0169 -0.8069 -0.2322 -80.1986 -3.7169 4.2538 -49.1646 -2.0057 2.2576 -11.8018 -0.6422 0.3778 7.5261 12.5637 3.3828 44.4151 21.3251 39.6573 -5.6646 78.8885 -7.5337 23.2536 -0.2113 -23.7789 50.2467 4.7268 2.8128 93.5966 3.4188 5.8876 34.9155 2.4427 1.4451 13.2982 28.3336 65.6723 -6.5151 -23.8291 10.1589 -14.9759 -41.5535 14.2037 16.5672 8.8383 -0.6017 38.0133 2.7664 0.1669 64.5457 4.3208 1.3282 55.8699 1.9533 3.3301 98.5312 5.9978 3.4733 23.1453 1.7757 -0.2324 59.6531 -0.6999 3.9132 60.9889 3.2816 3.5296 56.6987 3.2045 3.2024 -8.0803 -15.9460 0.5218 -6.6712 -7.9074 16.4263 8.9970 -7.9435 -10.5704 0.0000 0.0000 -1.3703 -1.3377 8.8253 -13.4124 2.4499 3.8221 14.5148 -2.0708 1.4759 0.5854 0.0000 -0.0000 2.7578 
3.9124 98.2879 3.4556 2.7435 -3.0600 -3.1918 -1.1222 4.7600 3.5055 -0.0188 -0.4674 1.0592 -0.3464 -1.2012 1.4577 1.2742 3.2445 1.7140 -6.4730 38.8962 0.1855 0.0000 -0.0000 0.0000 0.0000 -0.0000 0.0000 0.0000 -0.0000 0.0000 -22.6115 -10.3703 3.9818 -43.3244 -3.3473 18.3939 0.9992 -60.7046 -2.6281 -2.7487 -2.0724 -136.3354 -68.9947 -4.0398 3.6157 -48.8485 -1.9541 1.9948 -46.0158 -2.0734 1.9761 4.1790 -35.3514 25.2567 1.7671 -6.6536 -4.6392 9.6678 4.5657 -3.9034 -54.8364 -8.3371 1.7038 -68.1573 -3.2456 0.9709 -19.4387 -0.9360 -0.1018 -71.2141 -4.0374 3.6427 -55.9144 -3.1744 0.1934 -18.0169 -0.8069 -0.2322 -80.1986 -3.7169 4.2538 -49.1647 -2.0057 2.2577 -11.8018 -0.6422 0.3778 7.5261 12.5637 3.3828 44.4135 21.3335 39.6599 -5.6665 78.8915 -7.5357 23.3023 -0.0340 -23.8177 50.2467 4.7268 2.8128 93.5966 3.4188 5.8877 34.9155 2.4427 1.4451 13.2982 28.3336 65.6723 -6.5151 -23.8291 10.1589 -14.9759 -41.5535 14.2037 16.5672 8.8383 -0.6017 38.0133 2.7664 0.1670 64.5457 4.3208 1.3283 55.8699 1.9533 3.3301 98.5312 5.9978 3.4733 23.1453 1.7757 -0.2324 59.6531 -0.6999 3.9132 60.9889 3.2816 3.5296 56.6987 3.2046 3.2024 -8.1224 -16.0346 0.6209 -6.7282 -7.9552 16.6248 9.1185 -8.2743 -10.7608 0.0000 0.0000 -1.3925 -1.4338 8.7559 -13.4599 2.2943 3.3803 14.6314 -1.9977 1.4678 0.5381 0.0000 -0.0000 2.7387 
